PathFileType	4	(X/Y/Z)	TVC_36_BWA_04_walk_RCNL2025.trc
DataRate	CameraRate	NumFrames	NumMarkers	Units	OrigDataRate	OrigDataStartFrame	OrigNumFrames
100	100	5	27	mm	100	1	695
Frame#	Time	R_Shoulder			L_Shoulder			C7			J_Notch			R_Elbow			L_Elbow			R_Wrist			L_Wrist			R_Asis			L_Asis			R_Psis			L_Psis			Sacral			Thoracic			Sternum			R_Thigh_Lateral			R_Knee_Lateral			R_Shank_Lateral			R_Ankle_Lateral			R_Heel			R_Toe			L_Thigh_Lateral			L_Knee_Lateral			L_Shank_Lateral			L_Ankle_Lateral			L_Heel			L_Toe		
		X1	Y1	Z1	X2	Y2	Z2	X3	Y3	Z3	X4	Y4	Z4	X5	Y5	Z5	X6	Y6	Z6	X7	Y7	Z7	X8	Y8	Z8	X9	Y9	Z9	X10	Y10	Z10	X11	Y11	Z11	X12	Y12	Z12	X13	Y13	Z13	X14	Y14	Z14	X15	Y15	Z15	X16	Y16	Z16	X17	Y17	Z17	X18	Y18	Z18	X19	Y19	Z19	X20	Y20	Z20	X21	Y21	Z21	X22	Y22	Z22	X23	Y23	Z23	X24	Y24	Z24	X25	Y25	Z25	X26	Y26	Z26	X27	Y27	Z27
1	0.00000000	-492.263123	1401.904419	257.652863	-539.992371	1367.588501	-90.468933	-550.261719	1441.809570	89.982719	-403.137115	1311.897827	84.396416	-564.999695	1129.550293	369.251556	-527.405273	1074.477661	-198.709976	-502.186066	914.398468	385.483612	-363.941956	958.606476	-114.519367	-413.151733	904.764954	227.993744	-488.306274	906.082397	-38.782455	-623.911804	929.841614	170.403442	-639.665833	930.376465	88.908127	-631.788818	930.109039	129.655785	-603.663330	1152.717041	115.184464	-369.729675	1158.301147	70.844269	-403.543030	668.905273	326.635925	-305.574066	505.136932	268.546722	-406.405426	323.005585	310.023743	-454.431366	130.744934	240.447708	-496.360321	128.588058	185.732544	-338.624756	72.245224	219.816437	-539.390991	664.028564	-112.893257	-540.430786	468.146759	-38.813370	-591.217224	269.387543	-77.624825	-536.855286	63.146641	-13.943436	-580.636963	47.004562	30.816172	-406.871765	47.483826	26.995684
2	0.01000000	-487.453186	1401.647583	257.974487	-534.390381	1367.874268	-90.356125	-545.169617	1441.680542	90.244568	-397.939514	1311.427612	85.263680	-561.634827	1129.663208	369.280121	-524.345764	1074.983398	-199.326553	-498.446457	914.049438	386.023071	-359.744232	959.836151	-116.970596	-425.090790	899.230469	223.656601	-484.449402	905.416382	-38.206841	-620.427979	930.161011	170.355789	-636.149841	930.674988	88.772430	-628.288910	930.417999	129.564110	-599.421997	1152.989868	115.265488	-365.170593	1157.718994	71.148781	-401.152527	666.848694	325.922150	-303.833832	503.366760	266.007233	-394.391602	317.724030	309.192993	-434.104279	122.707565	240.332230	-476.312897	118.149063	186.222412	-315.101959	70.537727	218.198181	-536.798279	663.881287	-113.055183	-538.828308	468.181000	-38.778698	-590.347900	269.525024	-77.786781	-536.942383	63.100765	-13.824255	-580.657410	47.036530	30.763723	-406.855804	47.473328	26.996120
3	0.02000000	-482.644928	1401.261597	258.342468	-529.202393	1368.300293	-90.081337	-539.962036	1441.522095	90.487152	-392.906219	1311.036011	85.915054	-557.956177	1129.237915	369.185669	-521.460266	1075.675415	-199.939301	-493.303986	913.868988	386.675842	-355.787354	961.168335	-118.860687	-437.389526	894.005249	218.654556	-480.952271	905.059692	-38.296074	-616.846130	930.441223	170.341858	-632.465454	930.995422	88.822334	-624.655792	930.718323	129.582096	-594.956787	1152.999634	114.991104	-360.620697	1157.237427	71.445961	-397.945984	664.382629	324.581573	-302.587219	501.438690	263.319214	-382.686096	311.944824	308.673981	-413.113647	114.689308	239.919632	-456.804810	108.331696	186.906570	-292.834442	68.871971	216.890991	-534.342041	663.808899	-112.886948	-537.426453	468.206696	-38.755505	-589.759888	269.720215	-77.765007	-536.909912	63.090843	-13.725460	-580.635803	47.044647	30.785603	-406.864258	47.372944	27.087187
4	0.03000000	-477.950592	1400.779785	258.892365	-524.210205	1368.696411	-89.586258	-534.786560	1441.393921	90.880699	-389.275635	1310.035156	86.627281	-553.563843	1128.668823	369.223480	-518.441772	1076.273560	-200.214188	-488.673019	913.593781	387.687912	-351.764557	962.487579	-120.660645	-434.640991	892.691162	217.707703	-477.141418	904.815063	-37.833752	-613.142822	930.465454	170.473267	-628.806580	931.405212	88.911324	-620.974701	930.935333	129.692295	-590.369934	1153.044067	115.006607	-356.121338	1156.675171	71.688744	-396.022949	663.587952	324.815063	-301.714905	498.887451	260.785645	-372.613586	306.517273	307.759430	-393.709137	107.997612	240.326553	-437.568634	99.333061	187.529251	-271.496490	66.435921	215.469223	-531.860046	663.914429	-112.873856	-536.053589	468.255981	-38.675442	-589.000366	269.939484	-77.678062	-536.904724	63.094090	-13.760311	-580.652344	47.070553	30.749216	-406.906708	47.363071	27.052568
5	0.04000000	-473.010773	1400.135498	259.515442	-519.224121	1368.953735	-89.103142	-529.671631	1441.283569	91.469185	-384.695770	1309.574097	87.177322	-549.488831	1128.237061	369.447815	-515.501282	1076.825195	-200.380615	-483.597992	913.140930	388.666779	-347.881302	963.792633	-121.875389	-431.668091	891.692444	217.927399	-473.686676	904.835938	-37.481003	-609.161072	930.377258	170.613342	-624.901184	931.633240	89.074165	-617.031128	931.005249	129.843754	-586.023499	1152.990967	115.267876	-351.547211	1155.991333	72.005829	-394.253296	661.685547	324.797821	-307.195648	495.919952	258.988586	-363.184784	301.311462	307.361786	-375.225342	101.680115	240.426239	-418.803345	91.697746	187.768250	-251.312500	64.054955	214.505356	-529.436340	664.317078	-112.351173	-534.430542	468.158142	-38.429291	-588.306396	270.181458	-77.416534	-536.927734	63.053120	-13.725193	-580.490051	47.094963	30.657761	-406.916504	47.358059	27.008423
